<mxfile host="app.diagrams.net" agent="Mozilla/5.0 (Windows NT 10.0; Win64; x64) AppleWebKit/537.36 (KHTML, like Gecko) Chrome/138.0.0.0 Safari/537.36" version="28.0.6">
  <diagram name="PÃ¡gina-1" id="2noQNsOkvHQG0RMvVpiF">
    <mxGraphModel dx="1042" dy="608" grid="1" gridSize="10" guides="1" tooltips="1" connect="1" arrows="1" fold="1" page="1" pageScale="1" pageWidth="827" pageHeight="1169" math="0" shadow="0">
      <root>
        <mxCell id="0" />
        <mxCell id="1" parent="0" />
        <mxCell id="0vxmqD6xvDp400fkBC_W-16" style="edgeStyle=orthogonalEdgeStyle;rounded=0;orthogonalLoop=1;jettySize=auto;html=1;exitX=0.75;exitY=0;exitDx=0;exitDy=0;" edge="1" parent="1" source="0vxmqD6xvDp400fkBC_W-2" target="0vxmqD6xvDp400fkBC_W-4">
          <mxGeometry relative="1" as="geometry" />
        </mxCell>
        <mxCell id="0vxmqD6xvDp400fkBC_W-25" style="edgeStyle=orthogonalEdgeStyle;rounded=0;orthogonalLoop=1;jettySize=auto;html=1;exitX=1;exitY=1;exitDx=0;exitDy=0;entryX=1;entryY=0;entryDx=0;entryDy=0;" edge="1" parent="1" source="0vxmqD6xvDp400fkBC_W-26" target="0vxmqD6xvDp400fkBC_W-12">
          <mxGeometry relative="1" as="geometry" />
        </mxCell>
        <mxCell id="0vxmqD6xvDp400fkBC_W-32" style="edgeStyle=orthogonalEdgeStyle;rounded=0;orthogonalLoop=1;jettySize=auto;html=1;exitX=1;exitY=0.25;exitDx=0;exitDy=0;entryX=0;entryY=0.5;entryDx=0;entryDy=0;" edge="1" parent="1" source="0vxmqD6xvDp400fkBC_W-2" target="0vxmqD6xvDp400fkBC_W-31">
          <mxGeometry relative="1" as="geometry" />
        </mxCell>
        <mxCell id="0vxmqD6xvDp400fkBC_W-2" value="Cliente" style="rounded=0;whiteSpace=wrap;html=1;fillColor=#ffcd28;strokeColor=#d79b00;gradientColor=#ffa500;" vertex="1" parent="1">
          <mxGeometry x="320" y="150" width="120" height="60" as="geometry" />
        </mxCell>
        <mxCell id="0vxmqD6xvDp400fkBC_W-3" value="Id Cliente" style="ellipse;whiteSpace=wrap;html=1;fillColor=#f5f5f5;gradientColor=#b3b3b3;strokeColor=#666666;" vertex="1" parent="1">
          <mxGeometry x="200" y="70" width="120" height="80" as="geometry" />
        </mxCell>
        <mxCell id="0vxmqD6xvDp400fkBC_W-4" value="Nombre del cliente" style="ellipse;whiteSpace=wrap;html=1;" vertex="1" parent="1">
          <mxGeometry x="350" y="30" width="120" height="80" as="geometry" />
        </mxCell>
        <mxCell id="0vxmqD6xvDp400fkBC_W-5" value="Direccion" style="ellipse;whiteSpace=wrap;html=1;" vertex="1" parent="1">
          <mxGeometry x="310" y="250" width="120" height="80" as="geometry" />
        </mxCell>
        <mxCell id="0vxmqD6xvDp400fkBC_W-19" style="edgeStyle=orthogonalEdgeStyle;rounded=0;orthogonalLoop=1;jettySize=auto;html=1;exitX=0.5;exitY=0;exitDx=0;exitDy=0;entryX=0.5;entryY=1;entryDx=0;entryDy=0;" edge="1" parent="1" source="0vxmqD6xvDp400fkBC_W-6" target="0vxmqD6xvDp400fkBC_W-11">
          <mxGeometry relative="1" as="geometry" />
        </mxCell>
        <mxCell id="0vxmqD6xvDp400fkBC_W-20" style="edgeStyle=orthogonalEdgeStyle;rounded=0;orthogonalLoop=1;jettySize=auto;html=1;exitX=0;exitY=1;exitDx=0;exitDy=0;entryX=1;entryY=0;entryDx=0;entryDy=0;" edge="1" parent="1" source="0vxmqD6xvDp400fkBC_W-6" target="0vxmqD6xvDp400fkBC_W-9">
          <mxGeometry relative="1" as="geometry" />
        </mxCell>
        <mxCell id="0vxmqD6xvDp400fkBC_W-21" style="edgeStyle=orthogonalEdgeStyle;rounded=0;orthogonalLoop=1;jettySize=auto;html=1;exitX=1;exitY=1;exitDx=0;exitDy=0;entryX=0;entryY=0;entryDx=0;entryDy=0;" edge="1" parent="1" source="0vxmqD6xvDp400fkBC_W-6" target="0vxmqD6xvDp400fkBC_W-10">
          <mxGeometry relative="1" as="geometry" />
        </mxCell>
        <mxCell id="0vxmqD6xvDp400fkBC_W-28" style="edgeStyle=orthogonalEdgeStyle;rounded=0;orthogonalLoop=1;jettySize=auto;html=1;exitX=0.5;exitY=1;exitDx=0;exitDy=0;entryX=1;entryY=0.25;entryDx=0;entryDy=0;" edge="1" parent="1" source="0vxmqD6xvDp400fkBC_W-29" target="0vxmqD6xvDp400fkBC_W-12">
          <mxGeometry relative="1" as="geometry" />
        </mxCell>
        <mxCell id="0vxmqD6xvDp400fkBC_W-6" value="Repartidor" style="rounded=0;whiteSpace=wrap;html=1;fillColor=#ffcd28;strokeColor=#d79b00;gradientColor=#ffa500;" vertex="1" parent="1">
          <mxGeometry x="707" y="260" width="120" height="60" as="geometry" />
        </mxCell>
        <mxCell id="0vxmqD6xvDp400fkBC_W-9" value="Id Repartidor" style="ellipse;whiteSpace=wrap;html=1;fillColor=#f5f5f5;gradientColor=#b3b3b3;strokeColor=#666666;" vertex="1" parent="1">
          <mxGeometry x="570" y="330" width="120" height="80" as="geometry" />
        </mxCell>
        <mxCell id="0vxmqD6xvDp400fkBC_W-10" value="Nomnre del repartidor" style="ellipse;whiteSpace=wrap;html=1;" vertex="1" parent="1">
          <mxGeometry x="827" y="350" width="120" height="80" as="geometry" />
        </mxCell>
        <mxCell id="0vxmqD6xvDp400fkBC_W-11" value="Numero de placa" style="ellipse;whiteSpace=wrap;html=1;" vertex="1" parent="1">
          <mxGeometry x="707" y="140" width="120" height="80" as="geometry" />
        </mxCell>
        <mxCell id="0vxmqD6xvDp400fkBC_W-23" style="edgeStyle=orthogonalEdgeStyle;rounded=0;orthogonalLoop=1;jettySize=auto;html=1;exitX=0;exitY=0.5;exitDx=0;exitDy=0;entryX=1;entryY=0.5;entryDx=0;entryDy=0;" edge="1" parent="1" source="0vxmqD6xvDp400fkBC_W-12" target="0vxmqD6xvDp400fkBC_W-13">
          <mxGeometry relative="1" as="geometry" />
        </mxCell>
        <mxCell id="0vxmqD6xvDp400fkBC_W-24" style="edgeStyle=orthogonalEdgeStyle;rounded=0;orthogonalLoop=1;jettySize=auto;html=1;exitX=1;exitY=0.5;exitDx=0;exitDy=0;entryX=0;entryY=1;entryDx=0;entryDy=0;" edge="1" parent="1" source="0vxmqD6xvDp400fkBC_W-12" target="0vxmqD6xvDp400fkBC_W-14">
          <mxGeometry relative="1" as="geometry" />
        </mxCell>
        <mxCell id="0vxmqD6xvDp400fkBC_W-12" value="Pedido" style="rounded=0;whiteSpace=wrap;html=1;fillColor=#ffcd28;strokeColor=#d79b00;gradientColor=#ffa500;" vertex="1" parent="1">
          <mxGeometry x="250" y="510" width="120" height="60" as="geometry" />
        </mxCell>
        <mxCell id="0vxmqD6xvDp400fkBC_W-13" value="Id Cliente" style="ellipse;whiteSpace=wrap;html=1;fillColor=#f5f5f5;gradientColor=#b3b3b3;strokeColor=#666666;" vertex="1" parent="1">
          <mxGeometry x="70" y="505" width="120" height="80" as="geometry" />
        </mxCell>
        <mxCell id="0vxmqD6xvDp400fkBC_W-14" value="Id Repartidor" style="ellipse;whiteSpace=wrap;html=1;fillColor=#f5f5f5;gradientColor=#b3b3b3;strokeColor=#666666;" vertex="1" parent="1">
          <mxGeometry x="410" y="570" width="120" height="80" as="geometry" />
        </mxCell>
        <mxCell id="0vxmqD6xvDp400fkBC_W-15" value="Id Pedido" style="ellipse;whiteSpace=wrap;html=1;fillColor=#f5f5f5;gradientColor=#b3b3b3;strokeColor=#666666;" vertex="1" parent="1">
          <mxGeometry x="200" y="390" width="120" height="80" as="geometry" />
        </mxCell>
        <mxCell id="0vxmqD6xvDp400fkBC_W-17" style="edgeStyle=orthogonalEdgeStyle;rounded=0;orthogonalLoop=1;jettySize=auto;html=1;exitX=0;exitY=0.25;exitDx=0;exitDy=0;entryX=0.617;entryY=1.033;entryDx=0;entryDy=0;entryPerimeter=0;" edge="1" parent="1" source="0vxmqD6xvDp400fkBC_W-2" target="0vxmqD6xvDp400fkBC_W-3">
          <mxGeometry relative="1" as="geometry" />
        </mxCell>
        <mxCell id="0vxmqD6xvDp400fkBC_W-18" style="edgeStyle=orthogonalEdgeStyle;rounded=0;orthogonalLoop=1;jettySize=auto;html=1;exitX=0.5;exitY=1;exitDx=0;exitDy=0;entryX=0.593;entryY=0.003;entryDx=0;entryDy=0;entryPerimeter=0;" edge="1" parent="1" source="0vxmqD6xvDp400fkBC_W-2" target="0vxmqD6xvDp400fkBC_W-5">
          <mxGeometry relative="1" as="geometry" />
        </mxCell>
        <mxCell id="0vxmqD6xvDp400fkBC_W-22" style="edgeStyle=orthogonalEdgeStyle;rounded=0;orthogonalLoop=1;jettySize=auto;html=1;exitX=0.5;exitY=0;exitDx=0;exitDy=0;entryX=0.737;entryY=0.943;entryDx=0;entryDy=0;entryPerimeter=0;" edge="1" parent="1" source="0vxmqD6xvDp400fkBC_W-12" target="0vxmqD6xvDp400fkBC_W-15">
          <mxGeometry relative="1" as="geometry" />
        </mxCell>
        <mxCell id="0vxmqD6xvDp400fkBC_W-27" value="" style="edgeStyle=orthogonalEdgeStyle;rounded=0;orthogonalLoop=1;jettySize=auto;html=1;exitX=1;exitY=1;exitDx=0;exitDy=0;entryX=1;entryY=0;entryDx=0;entryDy=0;" edge="1" parent="1" source="0vxmqD6xvDp400fkBC_W-2" target="0vxmqD6xvDp400fkBC_W-26">
          <mxGeometry relative="1" as="geometry">
            <mxPoint x="440" y="210" as="sourcePoint" />
            <mxPoint x="370" y="510" as="targetPoint" />
          </mxGeometry>
        </mxCell>
        <mxCell id="0vxmqD6xvDp400fkBC_W-26" value="Realiza" style="rhombus;whiteSpace=wrap;html=1;fillColor=#d5e8d4;gradientColor=#97d077;strokeColor=#82b366;" vertex="1" parent="1">
          <mxGeometry x="400" y="350" width="80" height="80" as="geometry" />
        </mxCell>
        <mxCell id="0vxmqD6xvDp400fkBC_W-30" value="" style="edgeStyle=orthogonalEdgeStyle;rounded=0;orthogonalLoop=1;jettySize=auto;html=1;exitX=0.5;exitY=1;exitDx=0;exitDy=0;entryX=1;entryY=0.25;entryDx=0;entryDy=0;" edge="1" parent="1" source="0vxmqD6xvDp400fkBC_W-6" target="0vxmqD6xvDp400fkBC_W-29">
          <mxGeometry relative="1" as="geometry">
            <mxPoint x="767" y="320" as="sourcePoint" />
            <mxPoint x="370" y="525" as="targetPoint" />
          </mxGeometry>
        </mxCell>
        <mxCell id="0vxmqD6xvDp400fkBC_W-29" value="Entrega" style="rhombus;whiteSpace=wrap;html=1;fillColor=#d5e8d4;gradientColor=#97d077;strokeColor=#82b366;" vertex="1" parent="1">
          <mxGeometry x="680" y="470" width="80" height="80" as="geometry" />
        </mxCell>
        <mxCell id="0vxmqD6xvDp400fkBC_W-31" value="Telefono" style="ellipse;whiteSpace=wrap;html=1;" vertex="1" parent="1">
          <mxGeometry x="480" y="120" width="120" height="90" as="geometry" />
        </mxCell>
        <mxCell id="0vxmqD6xvDp400fkBC_W-33" value="Telefono" style="ellipse;whiteSpace=wrap;html=1;" vertex="1" parent="1">
          <mxGeometry x="890" y="230" width="120" height="80" as="geometry" />
        </mxCell>
        <mxCell id="0vxmqD6xvDp400fkBC_W-34" style="edgeStyle=orthogonalEdgeStyle;rounded=0;orthogonalLoop=1;jettySize=auto;html=1;exitX=1;exitY=0.5;exitDx=0;exitDy=0;entryX=0.04;entryY=0.672;entryDx=0;entryDy=0;entryPerimeter=0;" edge="1" parent="1" source="0vxmqD6xvDp400fkBC_W-6" target="0vxmqD6xvDp400fkBC_W-33">
          <mxGeometry relative="1" as="geometry" />
        </mxCell>
        <mxCell id="0vxmqD6xvDp400fkBC_W-35" value="Fecha del pedido" style="ellipse;whiteSpace=wrap;html=1;" vertex="1" parent="1">
          <mxGeometry x="190" y="610" width="120" height="80" as="geometry" />
        </mxCell>
        <mxCell id="0vxmqD6xvDp400fkBC_W-36" style="edgeStyle=orthogonalEdgeStyle;rounded=0;orthogonalLoop=1;jettySize=auto;html=1;exitX=0.25;exitY=1;exitDx=0;exitDy=0;entryX=0.667;entryY=0;entryDx=0;entryDy=0;entryPerimeter=0;" edge="1" parent="1" source="0vxmqD6xvDp400fkBC_W-12" target="0vxmqD6xvDp400fkBC_W-35">
          <mxGeometry relative="1" as="geometry" />
        </mxCell>
      </root>
    </mxGraphModel>
  </diagram>
</mxfile>
